<svg width="33" height="32" viewBox="0 0 33 32" fill="none" xmlns="http://www.w3.org/2000/svg">
<g clip-path="url(#clip0_31_418)">
<path d="M16.9409 31.9997C25.7774 31.9997 32.9408 24.8363 32.9408 15.9998C32.9408 7.16337 25.7774 0 16.9409 0C8.10447 0 0.941105 7.16337 0.941105 15.9998C0.941105 24.8363 8.10447 31.9997 16.9409 31.9997Z" fill="#CC3731"/>
<path d="M28.2543 4.68457C34.5027 10.9329 34.503 21.0639 28.2541 27.3128C22.0054 33.5611 11.8742 33.5611 5.62587 27.3128L28.2543 4.68457Z" fill="#BC2B2A"/>
<path d="M32.8067 18.0386L23.6542 8.88608L21.7596 10.7807L19.7382 8.75928L17.1716 9.22719L16.2856 9.60158L13.4242 9.05893L10.8556 10.6589L10.363 15.5248L14.3631 19.525L11.9084 20.0489L9.55022 21.1858L8.93127 24.9567L15.9403 31.966C16.2715 31.9862 16.604 32.0001 16.94 32.0001C25.0852 31.9999 31.8042 25.9119 32.8067 18.0386Z" fill="#A52728"/>
<path d="M16.8518 9.58702C16.9998 9.67851 17.1648 9.81186 17.3487 9.98748C17.5253 10.1707 17.6978 10.396 17.8674 10.6621C18.0296 10.9142 18.1733 11.2108 18.2989 11.5541C18.4017 11.897 18.4532 12.2977 18.4532 12.7552C18.4399 13.594 18.2544 14.2647 17.8974 14.7685C17.7236 15.0123 17.5382 15.2371 17.3426 15.4435C17.1261 15.6484 16.8957 15.8588 16.6519 16.0721C16.5115 16.2169 16.3831 16.3806 16.2641 16.564C16.1246 16.7545 16.0546 16.9753 16.0546 17.2267C16.0546 17.4725 16.1261 17.6739 16.2699 17.8336C16.3909 17.9861 16.5099 18.1198 16.6246 18.2342L17.4201 18.886C17.914 19.2913 18.3476 19.7349 18.7202 20.2233C19.0711 20.7197 19.2535 21.3675 19.2692 22.1676C19.2692 23.3038 18.7669 24.3098 17.7635 25.1877C16.7241 26.0957 15.2221 26.5639 13.2603 26.5939C11.6179 26.579 10.3918 26.2288 9.58162 25.5449C8.76511 24.905 8.35554 24.1405 8.35554 23.2499C8.35554 22.8167 8.48794 22.3321 8.75525 21.7995C9.01243 21.2677 9.4796 20.7991 10.1564 20.3956C10.9151 19.9626 11.7129 19.673 12.5492 19.5277C13.3768 19.4068 14.0637 19.3375 14.6112 19.3228C14.4419 19.1 14.2911 18.8625 14.159 18.6099C14.0046 18.3643 13.928 18.0685 13.928 17.7246C13.928 17.5177 13.9571 17.3442 14.0159 17.207C14.0673 17.0605 14.1155 16.9278 14.159 16.8043C13.8927 16.8343 13.6413 16.8503 13.4063 16.8503C12.1577 16.8343 11.2063 16.4418 10.5517 15.6722C9.86581 14.9545 9.52321 14.1197 9.52321 13.1672C9.52321 12.0154 10.0083 10.9715 10.9797 10.0335C11.6462 9.48473 12.3386 9.12749 13.0569 8.95822C13.7684 8.81346 14.435 8.74121 15.0566 8.74121H19.7458L18.2979 9.58682H16.8516V9.58702H16.8518ZM17.757 23.0836C17.757 22.4882 17.5629 21.9705 17.1756 21.5284C16.7643 21.1093 16.1226 20.5949 15.249 19.984C15.0989 19.968 14.9236 19.961 14.7225 19.961C14.603 19.9463 14.2968 19.961 13.8043 20.0067C13.319 20.0754 12.8221 20.1861 12.3145 20.3387C12.1947 20.3842 12.0275 20.4531 11.811 20.5443C11.5948 20.6436 11.3745 20.7851 11.1501 20.9677C10.9336 21.1582 10.7504 21.3945 10.6018 21.6774C10.4293 21.975 10.3447 22.3333 10.3447 22.7522C10.3447 23.5763 10.7168 24.2552 11.4631 24.7893C12.173 25.3226 13.1429 25.5969 14.3753 25.6129C15.4802 25.5969 16.324 25.3534 16.9056 24.8807C17.4733 24.4146 17.757 23.8166 17.757 23.0836ZM14.4886 16.2108C15.1058 16.188 15.6201 15.9657 16.0312 15.5453C16.23 15.2474 16.3574 14.9418 16.414 14.6285C16.4481 14.3152 16.4655 14.0522 16.4655 13.8374C16.4655 12.9138 16.2288 11.9805 15.7561 11.0419C15.534 10.5917 15.2419 10.2241 14.8799 9.9417C14.5103 9.67541 14.0853 9.53341 13.6053 9.51802C12.9697 9.53341 12.4421 9.78938 12.0205 10.2863C11.6653 10.8055 11.4952 11.3863 11.5112 12.0283C11.5112 12.876 11.7588 13.7577 12.255 14.6753C12.4955 15.103 12.805 15.4658 13.1859 15.7639C13.5657 16.0623 13.9995 16.2108 14.4886 16.2108Z" fill="white"/>
<path d="M26.098 11.3025H23.638V8.84131H22.4458V11.3025H19.9858V12.4942H22.4458V14.9545H23.638V12.4942H26.098V11.3025Z" fill="white"/>
</g>
<defs>
<clipPath id="clip0_31_418">
<rect width="32" height="32" fill="white" transform="translate(0.940979)"/>
</clipPath>
</defs>
</svg>
