<svg width="48" height="48" viewBox="0 0 48 48" fill="none" xmlns="http://www.w3.org/2000/svg">
<g filter="url(#filter0_d_31_7132)">
<rect x="4" y="4" width="40" height="40" rx="8" fill="white"/>
</g>
<g clip-path="url(#clip0_31_7132)">
<path d="M34.6416 20.75H32.2724V23.1084H29.9139V25.4777H32.2724V27.8361H34.6416V25.4777H37V23.1084H34.6416V20.75Z" fill="#F44336"/>
<path d="M26.9283 24.1885C26.9283 23.6566 26.873 23.246 26.7961 22.8365H19.1261V25.6293H23.7378C22.9275 30.721 14.094 30.2974 14.094 24C14.094 19.4652 19.4457 17.3126 22.3631 20.1195L24.5688 18.0027C19.5659 13.3162 11 16.8283 11 24C11 34.4867 26.9283 35.1074 26.9283 24.1885Z" fill="#F44336"/>
</g>
<defs>
<filter id="filter0_d_31_7132" x="0" y="0" width="48" height="48" filterUnits="userSpaceOnUse" color-interpolation-filters="sRGB">
<feFlood flood-opacity="0" result="BackgroundImageFix"/>
<feColorMatrix in="SourceAlpha" type="matrix" values="0 0 0 0 0 0 0 0 0 0 0 0 0 0 0 0 0 0 127 0" result="hardAlpha"/>
<feOffset/>
<feGaussianBlur stdDeviation="2"/>
<feComposite in2="hardAlpha" operator="out"/>
<feColorMatrix type="matrix" values="0 0 0 0 0 0 0 0 0 0 0 0 0 0 0 0 0 0 0.25 0"/>
<feBlend mode="normal" in2="BackgroundImageFix" result="effect1_dropShadow_31_7132"/>
<feBlend mode="normal" in="SourceGraphic" in2="effect1_dropShadow_31_7132" result="shape"/>
</filter>
<clipPath id="clip0_31_7132">
<rect width="26" height="26" fill="white" transform="translate(11 11)"/>
</clipPath>
</defs>
</svg>
