<svg width="33" height="32" viewBox="0 0 33 32" fill="none" xmlns="http://www.w3.org/2000/svg">
<path d="M16.941 32C25.7775 32 32.941 24.8366 32.941 16C32.941 7.16344 25.7775 0 16.941 0C8.10442 0 0.940979 7.16344 0.940979 16C0.940979 24.8366 8.10442 32 16.941 32Z" fill="#1877F2"/>
<path opacity="0.49" d="M31.5131 22.6151C31.5523 22.4567 31.618 22.3059 31.7073 22.1693C32.5241 20.215 32.9435 18.1175 32.941 15.9994C32.941 15.8849 32.939 15.7709 32.9366 15.657L22.5737 5.29403C21.5843 5.18907 20.59 5.13825 19.5952 5.14177C16.6477 5.14177 14.6305 6.94017 14.6305 10.2444V13.0938H11.3082V16.9658L14.6306 20.2874V26.857L19.5586 31.785C22.1503 31.354 24.5963 30.2922 26.681 28.6931C28.7657 27.094 30.4252 25.0067 31.5131 22.6151Z" fill="url(#paint0_linear_31_414)"/>
<path d="M18.627 26.857V16.9658H21.9614L22.461 13.0938H18.627V10.6279C18.627 9.50951 18.9375 8.74747 20.5411 8.74747H22.5736V5.29396C21.5843 5.18907 20.59 5.13827 19.5951 5.14177C16.6476 5.14177 14.6304 6.94017 14.6304 10.2444V13.0938H11.3082V16.9658H14.6306V26.857H18.627Z" fill="white"/>
<defs>
<linearGradient id="paint0_linear_31_414" x1="12.494" y1="9.96744" x2="36.8053" y2="34.2787" gradientUnits="userSpaceOnUse">
<stop stop-color="#1D1D1B"/>
<stop offset="0.369" stop-color="#1D1D1B" stop-opacity="0.856"/>
<stop offset="0.75" stop-color="#1D1D1B" stop-opacity="0.429"/>
<stop offset="1" stop-color="#1D1D1B" stop-opacity="0"/>
</linearGradient>
</defs>
</svg>
