<svg width="33" height="32" viewBox="0 0 33 32" fill="none" xmlns="http://www.w3.org/2000/svg">
<g clip-path="url(#clip0_31_425)">
<path d="M16.941 31.625C25.5704 31.625 32.566 24.6294 32.566 16C32.566 7.37055 25.5704 0.375 16.941 0.375C8.31153 0.375 1.31598 7.37055 1.31598 16C1.31598 24.6294 8.31153 31.625 16.941 31.625Z" fill="url(#paint0_linear_31_425)"/>
<path opacity="0.49" d="M32.559 15.5465L25.0195 8.00704C23.9265 6.92579 22.4547 6.52292 20.9549 6.44873H12.9271C11.4271 6.52292 9.95548 6.92561 8.86242 8.00704C7.77979 9.07817 7.36242 10.543 7.28742 12.0285V19.971C7.36242 21.4565 7.77985 22.9214 8.86242 23.9925L16.4877 31.6178C16.6383 31.622 16.7894 31.6248 16.941 31.6248C25.5704 31.6248 32.566 24.6292 32.566 15.9998C32.566 15.8481 32.5632 15.6971 32.559 15.5465ZM13.0285 23.7412C12.0109 23.7132 10.8574 23.4599 10.1324 22.6855C9.37898 21.8805 9.09848 20.908 9.06542 19.8202C9.06542 19.8202 9.01467 14.0889 9.06542 12.1794C9.09429 11.0915 9.37898 10.119 10.1324 9.31404C10.8574 8.53942 12.0109 8.28636 13.0285 8.25842C14.9839 8.20473 18.8976 8.20473 20.853 8.25842C21.8705 8.28636 23.0241 8.53967 23.7491 9.31404C24.5025 10.119 24.7872 11.0915 24.816 12.1794V12.2757L22.7679 10.2272C22.6734 10.1328 22.5613 10.0578 22.4379 10.0067C22.3144 9.9556 22.1822 9.92929 22.0486 9.92929C21.915 9.92928 21.7827 9.95559 21.6593 10.0067C21.5359 10.0578 21.4238 10.1327 21.3293 10.2272C21.2349 10.3217 21.1599 10.4338 21.1088 10.5572C21.0577 10.6806 21.0314 10.8129 21.0314 10.9465C21.0314 11.2162 21.1385 11.475 21.3293 11.6657L24.8163 15.1527V16.6825L20.5373 12.4035C19.5824 11.4549 18.2905 10.9235 16.9445 10.9257C15.5985 10.9279 14.3083 11.4636 13.3566 12.4153C12.4049 13.3671 11.8692 14.6573 11.867 16.0032C11.8647 17.3492 12.3961 18.6412 13.3447 19.596L17.5293 23.7807C15.8754 23.7847 14.1374 23.7715 13.0285 23.7412Z" fill="url(#paint1_linear_31_425)"/>
<path d="M26.5946 12.0285C26.5196 10.543 26.1022 9.07817 25.0196 8.00704C23.9265 6.92579 22.4547 6.52292 20.9549 6.44873H12.9271C11.4271 6.52292 9.95548 6.92561 8.86242 8.00704C7.77979 9.07817 7.36242 10.543 7.28742 12.0285V19.971C7.36242 21.4565 7.77985 22.9214 8.86242 23.9925C9.95548 25.0737 11.4273 25.4766 12.9271 25.5509H20.9549C22.4549 25.4766 23.9265 25.074 25.0195 23.9925C26.1022 22.9214 26.5195 21.4565 26.5945 19.971L26.5946 12.0285ZM9.06598 12.1794C9.09485 11.0915 9.37954 10.119 10.1329 9.31404C10.8579 8.53942 12.0115 8.28636 13.029 8.25842C14.9844 8.20479 18.8982 8.20479 20.8535 8.25842C21.8711 8.28636 23.0247 8.53967 23.7497 9.31404C24.503 10.119 24.7877 11.0915 24.8166 12.1794V19.8202C24.7877 20.9081 24.503 21.8806 23.7497 22.6855C23.0247 23.4602 21.8711 23.7132 20.8535 23.7412C18.8982 23.7948 14.9844 23.7948 13.029 23.7412C12.0115 23.7132 10.8579 23.4599 10.1329 22.6855C9.37954 21.8806 9.09904 20.908 9.06598 19.8202C9.06598 19.8202 9.01492 14.0889 9.06598 12.1794Z" fill="white"/>
<path d="M22.0486 11.9636C22.6104 11.9636 23.0658 11.5082 23.0658 10.9464C23.0658 10.3846 22.6104 9.9292 22.0486 9.9292C21.4868 9.9292 21.0314 10.3846 21.0314 10.9464C21.0314 11.5082 21.4868 11.9636 22.0486 11.9636Z" fill="white"/>
<path d="M16.941 10.9136C15.9351 10.9136 14.9518 11.2119 14.1154 11.7707C13.279 12.3296 12.6271 13.1239 12.2422 14.0532C11.8572 14.9825 11.7565 16.0051 11.9528 16.9917C12.149 17.9783 12.6334 18.8845 13.3447 19.5958C14.0559 20.3071 14.9622 20.7915 15.9487 20.9877C16.9353 21.184 17.9579 21.0833 18.8872 20.6983C19.8166 20.3134 20.6109 19.6615 21.1697 18.8252C21.7286 17.9888 22.0269 17.0055 22.0269 15.9996C22.0269 15.3317 21.8954 14.6703 21.6398 14.0533C21.3842 13.4362 21.0096 12.8755 20.5373 12.4032C20.065 11.931 19.5044 11.5563 18.8873 11.3007C18.2702 11.0451 17.6089 10.9136 16.941 10.9136ZM16.941 19.2808C16.292 19.2808 15.6576 19.0884 15.118 18.7278C14.5784 18.3673 14.1578 17.8548 13.9095 17.2553C13.6611 16.6557 13.5962 15.9959 13.7228 15.3594C13.8494 14.7229 14.1619 14.1383 14.6208 13.6794C15.0797 13.2205 15.6643 12.908 16.3008 12.7814C16.9373 12.6548 17.5971 12.7197 18.1967 12.9681C18.7962 13.2164 19.3087 13.637 19.6692 14.1766C20.0298 14.7162 20.2222 15.3506 20.2222 15.9996C20.2222 16.8698 19.8765 17.7044 19.2612 18.3198C18.6458 18.9351 17.8112 19.2808 16.941 19.2808Z" fill="white"/>
</g>
<defs>
<linearGradient id="paint0_linear_31_425" x1="5.89242" y1="27.0486" x2="27.9895" y2="4.95144" gradientUnits="userSpaceOnUse">
<stop stop-color="#D6B43D"/>
<stop offset="0.051" stop-color="#DBA93F"/>
<stop offset="0.143" stop-color="#E88A45"/>
<stop offset="0.164" stop-color="#EB8246"/>
<stop offset="0.211" stop-color="#E7774D"/>
<stop offset="0.294" stop-color="#DD5860"/>
<stop offset="0.31" stop-color="#DB5164"/>
<stop offset="0.464" stop-color="#D2466C"/>
<stop offset="0.567" stop-color="#C93B73"/>
<stop offset="0.607" stop-color="#CB3179"/>
<stop offset="0.733" stop-color="#A23394"/>
<stop offset="0.856" stop-color="#7F35AB"/>
<stop offset="0.91" stop-color="#7D35AB"/>
<stop offset="0.94" stop-color="#7537AA"/>
<stop offset="0.964" stop-color="#673AA9"/>
<stop offset="0.985" stop-color="#533DA8"/>
<stop offset="1" stop-color="#4041A6"/>
</linearGradient>
<linearGradient id="paint1_linear_31_425" x1="8.90529" y1="7.96411" x2="27.9895" y2="27.0484" gradientUnits="userSpaceOnUse">
<stop stop-color="#1D1D1B"/>
<stop offset="0.369" stop-color="#1D1D1B" stop-opacity="0.856"/>
<stop offset="0.75" stop-color="#1D1D1B" stop-opacity="0.429"/>
<stop offset="1" stop-color="#1D1D1B" stop-opacity="0"/>
</linearGradient>
<clipPath id="clip0_31_425">
<rect width="32" height="32" fill="white" transform="translate(0.940979)"/>
</clipPath>
</defs>
</svg>
