<svg width="26" height="26" viewBox="0 0 26 26" fill="none" xmlns="http://www.w3.org/2000/svg">
<g clip-path="url(#clip0_31_7140)">
<path d="M9.75 0H0V9.75H9.75V0ZM8.125 8.125H1.625V1.625H8.125V8.125Z" fill="#252525"/>
<path d="M3.25 3.25H6.5V6.5H3.25V3.25Z" fill="#252525"/>
<path d="M0 26H9.75V16.25H0V26ZM1.625 17.875H8.125V24.375H1.625V17.875Z" fill="#252525"/>
<path d="M3.25 19.5H6.5V22.75H3.25V19.5Z" fill="#252525"/>
<path d="M16.25 0V9.75H26V0H16.25ZM24.375 8.125H17.875V1.625H24.375V8.125Z" fill="#252525"/>
<path d="M19.5 3.25H22.75V6.5H19.5V3.25Z" fill="#252525"/>
<path d="M3.25 11.375H0V14.625H4.875V13H3.25V11.375Z" fill="#252525"/>
<path d="M11.375 14.625H14.625V17.875H11.375V14.625Z" fill="#252525"/>
<path d="M4.875 11.375H8.125V13H4.875V11.375Z" fill="#252525"/>
<path d="M14.625 19.5H11.375V21.125H13V22.75H14.625V21.125V19.5Z" fill="#252525"/>
<path d="M9.75 11.375V13H8.125V14.625H11.375V11.375H9.75Z" fill="#252525"/>
<path d="M13 6.5H14.625V9.75H13V6.5Z" fill="#252525"/>
<path d="M14.625 13V14.625H17.875V11.375H13V13H14.625Z" fill="#252525"/>
<path d="M11.375 9.75H13V11.375H11.375V9.75Z" fill="#252525"/>
<path d="M14.625 22.75H17.875V26H14.625V22.75Z" fill="#252525"/>
<path d="M11.375 22.75H13V26H11.375V22.75Z" fill="#252525"/>
<path d="M14.625 17.875H16.25V19.5H14.625V17.875Z" fill="#252525"/>
<path d="M14.625 4.875V1.625H13V0H11.375V6.5H13V4.875H14.625Z" fill="#252525"/>
<path d="M19.5 22.75H21.125V26H19.5V22.75Z" fill="#252525"/>
<path d="M19.5 19.5H22.75V21.125H19.5V19.5Z" fill="#252525"/>
<path d="M17.875 21.125H19.5V22.75H17.875V21.125Z" fill="#252525"/>
<path d="M16.25 19.5H17.875V21.125H16.25V19.5Z" fill="#252525"/>
<path d="M22.75 16.25V17.875H24.375V19.5H26V16.25H24.375H22.75Z" fill="#252525"/>
<path d="M24.375 21.125H22.75V26H26V22.75H24.375V21.125Z" fill="#252525"/>
<path d="M16.25 16.25V17.875H21.125V14.625H17.875V16.25H16.25Z" fill="#252525"/>
<path d="M19.5 11.375V13H22.75V14.625H26V11.375H22.75H19.5Z" fill="#252525"/>
</g>
<defs>
<clipPath id="clip0_31_7140">
<rect width="26" height="26" fill="white"/>
</clipPath>
</defs>
</svg>
