<svg width="33" height="32" viewBox="0 0 33 32" fill="none" xmlns="http://www.w3.org/2000/svg">
<g clip-path="url(#clip0_31_432)">
<path d="M16.941 32C25.7775 32 32.941 24.8366 32.941 16C32.941 7.16344 25.7775 0 16.941 0C8.10442 0 0.940979 7.16344 0.940979 16C0.940979 24.8366 8.10442 32 16.941 32Z" fill="#03A9F4"/>
<path opacity="0.49" d="M32.941 16.0001C32.9411 15.0101 32.8498 14.0222 32.6683 13.049L27.3326 7.71325C27.3326 7.71325 25.503 8.57424 24.4786 8.78947C23.6735 7.92848 22.5026 7.42627 21.1854 7.42627C18.2813 7.42627 16.2232 10.0076 16.7946 12.8075C13.0626 12.5922 9.69618 10.8702 7.50098 8.28726C7.12062 8.94106 6.91872 9.68333 6.91551 10.4397C6.91551 11.9464 7.7205 13.3097 8.89138 14.0272C8.169 14.0248 7.46081 13.8264 6.84229 13.4532C6.82859 15.5445 8.36287 17.3966 10.4281 17.7582C9.77317 17.8867 9.03935 17.9917 8.37912 17.8299C8.68738 18.71 9.26131 19.4726 10.0216 20.0124C10.782 20.5522 11.6911 20.8426 12.6236 20.8434C10.8281 22.1846 8.21855 23.0794 5.96415 22.6371L15.2365 31.9097C15.8027 31.9698 16.3716 32 16.941 32.0001C25.7775 32.0001 32.941 24.8366 32.941 16.0001Z" fill="url(#paint0_linear_31_432)"/>
<path fill-rule="evenodd" clip-rule="evenodd" d="M24.4786 8.78947C23.6735 7.92848 22.5026 7.42627 21.1854 7.42627C18.2813 7.42627 16.2232 10.0076 16.7946 12.8075C13.0626 12.5922 9.69618 10.8702 7.50098 8.28726C7.12062 8.94106 6.91872 9.68333 6.91551 10.4397C6.91551 11.9464 7.7205 13.3097 8.89138 14.0272C8.169 14.0248 7.46081 13.8264 6.84229 13.4532C6.82859 15.5445 8.36287 17.3966 10.4281 17.7582C9.77317 17.8866 9.03935 17.9917 8.37912 17.8299C8.68738 18.71 9.26131 19.4726 10.0216 20.0124C10.782 20.5522 11.6911 20.8426 12.6236 20.8434C10.8281 22.1846 8.21855 23.0794 5.96415 22.6371C10.3584 25.3499 16.3641 25.2316 20.5534 22.1646C23.9312 19.6917 25.6496 15.7798 25.6496 11.6594C26.5094 11.0317 27.2736 10.2825 27.9182 9.43523C27.1131 9.79401 26.235 10.0092 25.3569 10.1527C26.235 9.57872 26.9668 8.78953 27.3327 7.71325C27.3325 7.71325 25.503 8.57424 24.4786 8.78947Z" fill="white"/>
</g>
<defs>
<linearGradient id="paint0_linear_31_432" x1="8.63058" y1="7.15747" x2="28.5208" y2="27.0477" gradientUnits="userSpaceOnUse">
<stop stop-color="#1D1D1B"/>
<stop offset="0.369" stop-color="#1D1D1B" stop-opacity="0.856"/>
<stop offset="0.75" stop-color="#1D1D1B" stop-opacity="0.429"/>
<stop offset="1" stop-color="#1D1D1B" stop-opacity="0"/>
</linearGradient>
<clipPath id="clip0_31_432">
<rect width="32" height="32" fill="white" transform="translate(0.940979)"/>
</clipPath>
</defs>
</svg>
