<svg width="48" height="48" viewBox="0 0 48 48" fill="none" xmlns="http://www.w3.org/2000/svg">
<g filter="url(#filter0_d_31_7122)">
<rect x="4" y="4" width="40" height="40" rx="8" fill="white"/>
</g>
<g clip-path="url(#clip0_31_7122)">
<path d="M37 15.9384C36.0331 16.3625 35.0029 16.6436 33.9287 16.7801C35.0337 16.1204 35.8771 15.0836 36.2736 13.834C35.2434 14.4482 34.1059 14.8821 32.8936 15.1243C31.9154 14.0826 30.5211 13.4375 29.0001 13.4375C26.0491 13.4375 23.6734 15.8328 23.6734 18.7691C23.6734 19.1916 23.7091 19.5979 23.7969 19.9846C19.3655 19.7685 15.4444 17.6446 12.8102 14.4093C12.3504 15.2071 12.0806 16.1204 12.0806 17.1035C12.0806 18.9495 13.0312 20.5859 14.4483 21.5332C13.5919 21.517 12.7517 21.2684 12.04 20.8767C12.04 20.893 12.04 20.9141 12.04 20.9352C12.04 23.5255 13.8876 25.677 16.3105 26.1726C15.8766 26.2913 15.4037 26.3481 14.913 26.3481C14.5717 26.3481 14.2272 26.3286 13.9039 26.2571C14.5945 28.368 16.5543 29.9199 18.8845 29.9702C17.071 31.3889 14.7684 32.2436 12.2756 32.2436C11.8385 32.2436 11.4192 32.2241 11 32.1705C13.3611 33.6931 16.1594 34.5625 19.177 34.5625C28.9855 34.5625 34.348 26.4375 34.348 19.3947C34.348 19.1591 34.3399 18.9316 34.3285 18.7057C35.3864 17.955 36.2752 17.0174 37 15.9384Z" fill="#03A9F4"/>
</g>
<defs>
<filter id="filter0_d_31_7122" x="0" y="0" width="48" height="48" filterUnits="userSpaceOnUse" color-interpolation-filters="sRGB">
<feFlood flood-opacity="0" result="BackgroundImageFix"/>
<feColorMatrix in="SourceAlpha" type="matrix" values="0 0 0 0 0 0 0 0 0 0 0 0 0 0 0 0 0 0 127 0" result="hardAlpha"/>
<feOffset/>
<feGaussianBlur stdDeviation="2"/>
<feComposite in2="hardAlpha" operator="out"/>
<feColorMatrix type="matrix" values="0 0 0 0 0 0 0 0 0 0 0 0 0 0 0 0 0 0 0.25 0"/>
<feBlend mode="normal" in2="BackgroundImageFix" result="effect1_dropShadow_31_7122"/>
<feBlend mode="normal" in="SourceGraphic" in2="effect1_dropShadow_31_7122" result="shape"/>
</filter>
<clipPath id="clip0_31_7122">
<rect width="26" height="26" fill="white" transform="translate(11 11)"/>
</clipPath>
</defs>
</svg>
